<svg id="Capa_1" enable-background="new 0 0 512 512" height="512" viewBox="0 0 512 512" width="512" xmlns="http://www.w3.org/2000/svg" xmlns:xlink="http://www.w3.org/1999/xlink"><linearGradient id="SVGID_1_" gradientUnits="userSpaceOnUse" x1="256" x2="256" y1="512" y2="0"><stop offset="0" stop-color="#fd3a84"/><stop offset="1" stop-color="#ffa68d"/></linearGradient><g><g><path d="m436 211c-9.554 0-343.615 0-360 0-8.284 0-15 6.716-15 15s6.716 15 15 15h16.569l28.522 257.65c.841 7.599 7.263 13.35 14.909 13.35h240c7.646 0 14.068-5.75 14.909-13.35l28.522-257.65h16.569c8.284 0 15-6.716 15-15s-6.716-15-15-15zm-313.248 30h44.055l3.321 60h-40.734zm9.963 90h39.074l3.321 60h-35.753zm16.716 151-6.753-61h34.092l3.376 61zm91.569 0h-30.807l-3.376-61h34.183zm0-91h-35.844l-3.321-60h39.165zm0-90h-40.826l-3.321-60h44.147zm60.807 181h-30.807v-61h34.184zm5.037-91h-35.844v-60h39.165zm4.982-90h-40.826v-60h44.147zm50.743 181h-30.716l3.376-61h34.092zm10.074-91h-35.753l3.321-60h39.074zm9.963-90h-40.734l3.321-60h44.055zm-226.209-198.477 90 75c5.562 4.636 13.642 4.636 19.205 0l90-75c7.167-5.972 7.193-16.973.075-22.984l-90-76c-5.589-4.719-13.767-4.719-19.355 0l-90 76c-7.127 6.019-7.082 17.021.075 22.984zm99.603-67.89 66.661 56.291-66.661 55.55-66.661-55.551z" fill="url(#SVGID_1_)"/></g></g></svg>